<svg xmlns="http://www.w3.org/2000/svg" viewBox="0 0 35.13 35.13"><defs><style>.cls-1{fill:#222831;}</style></defs><title>Ресурс 52d</title><g id="Слой_2" data-name="Слой 2"><g id="Слой_1-2" data-name="Слой 1"><path class="cls-1" d="M0,0V35.13H35.13V0ZM12.36,27.59a.34.34,0,0,1-.34.33H7.86a.34.34,0,0,1-.34-.33V14.2a.34.34,0,0,1,.34-.33H12a.34.34,0,0,1,.34.33ZM9.94,12.71A2.75,2.75,0,1,1,12.69,10,2.75,2.75,0,0,1,9.94,12.71Zm18,14.88a.33.33,0,0,1-.33.33H23.45a.33.33,0,0,1-.33-.33V21.08c0-1.82-.14-3.22-1.83-3.22s-2.16.87-2.16,3.1v6.63a.34.34,0,0,1-.34.33H14.63a.33.33,0,0,1-.33-.33V14.2a.33.33,0,0,1,.33-.33h4a.34.34,0,0,1,.34.33v.87a4.89,4.89,0,0,1,3.66-1.54c4.69,0,5.32,3.4,5.32,6.71Z"/></g></g></svg>