<svg xmlns="http://www.w3.org/2000/svg" viewBox="0 0 35.13 35.13"><defs><style>.cls-1{fill:#222831;}</style></defs><title>Ресурс 22d</title><g id="Слой_2" data-name="Слой 2"><g id="Слой_1-2" data-name="Слой 1"><path class="cls-1" d="M24.7,9.32c-2.27-2.13-11.19-2.79-14.35.17C9,10.89,8.51,13,8.46,15.51s-.31,7.4,4.19,8.69c0,0,0,3.6,0,3.92,0,.48.25.5.48.26.72-.74,3-3.61,3-3.61a18.35,18.35,0,0,0,5.8-.52c.62-.2,4-.51,4.56-5.26C26.49,18.75,27.48,11.79,24.7,9.32ZM22.83,20.91h0c-.48.87-1.37,1.83-2.29,1.52h0A16.77,16.77,0,0,1,16,19.84c-3-2.41-3.89-5.61-4.39-6.62-.3-1,.63-1.88,1.47-2.37h0a.78.78,0,0,1,1.06.18,13.59,13.59,0,0,1,1.45,2.1,1,1,0,0,1-.16,1.22l-.53.44a.83.83,0,0,0-.24.64,5.68,5.68,0,0,0,3.73,3.86A.77.77,0,0,0,19,19l.43-.55a.9.9,0,0,1,1.17-.16,11.83,11.83,0,0,1,2,1.5A.84.84,0,0,1,22.83,20.91ZM17.9,12.18a.3.3,0,0,1,0-.59,4,4,0,0,1,3.88,4.23.29.29,0,1,1-.57,0h0A3.38,3.38,0,0,0,17.9,12.18Zm.47,1a2,2,0,0,1,2,2.12.29.29,0,1,1-.57,0c-.05-1-.5-1.5-1.44-1.55h0A.3.3,0,0,1,18.37,13.17Zm4.39,3.25c0-3.73-2.43-5.76-5.35-5.78a.3.3,0,0,1,0-.59c3.26,0,5.89,2.35,5.92,6.37h0A.29.29,0,1,1,22.76,16.42Z"/><path class="cls-1" d="M0,0V35.13H35.13V0ZM28.09,19.42h0c-.67,5.7-4.83,6.25-5.56,6.5a20.28,20.28,0,0,1-6.75.51c-2.17,2.6-2.49,3-3.19,2.81S12,28.09,12,28.09V25.73h0C6.7,24.18,6.78,18.48,6.84,15.44s.63-5.5,2.25-7.17c3.61-3.43,13.78-3,16.8-.13h0C27.75,9.82,28.79,13.53,28.09,19.42Z"/></g></g></svg>